<svg width="25" height="24" viewBox="0 0 25 24" fill="none" xmlns="http://www.w3.org/2000/svg">
<path d="M7.84673 2H16.2525C19.4547 2 22.0565 4.6 22.0565 7.8V16.2C22.0565 17.7383 21.445 19.2135 20.3566 20.3012C19.2681 21.3889 17.7918 22 16.2525 22H7.84673C4.64452 22 2.04272 19.4 2.04272 16.2V7.8C2.04272 6.26174 2.65422 4.78649 3.74268 3.69878C4.83114 2.61107 6.30741 2 7.84673 2ZM7.64659 4C6.69115 4 5.77484 4.37928 5.09925 5.05442C4.42365 5.72955 4.0441 6.64522 4.0441 7.6V16.4C4.0441 18.39 5.65521 20 7.64659 20H16.4527C17.4081 20 18.3244 19.6207 19 18.9456C19.6756 18.2705 20.0551 17.3548 20.0551 16.4V7.6C20.0551 5.61 18.444 4 16.4527 4H7.64659ZM17.3032 5.5C17.635 5.5 17.9532 5.6317 18.1877 5.86612C18.4223 6.10054 18.5541 6.41848 18.5541 6.75C18.5541 7.08152 18.4223 7.39946 18.1877 7.63388C17.9532 7.8683 17.635 8 17.3032 8C16.9715 8 16.6533 7.8683 16.4187 7.63388C16.1842 7.39946 16.0524 7.08152 16.0524 6.75C16.0524 6.41848 16.1842 6.10054 16.4187 5.86612C16.6533 5.6317 16.9715 5.5 17.3032 5.5ZM12.0496 7C13.3766 7 14.6493 7.52678 15.5876 8.46447C16.5259 9.40215 17.0531 10.6739 17.0531 12C17.0531 13.3261 16.5259 14.5979 15.5876 15.5355C14.6493 16.4732 13.3766 17 12.0496 17C10.7226 17 9.44998 16.4732 8.51165 15.5355C7.57332 14.5979 7.04617 13.3261 7.04617 12C7.04617 10.6739 7.57332 9.40215 8.51165 8.46447C9.44998 7.52678 10.7226 7 12.0496 7ZM12.0496 9C11.2534 9 10.4898 9.31607 9.92684 9.87868C9.36384 10.4413 9.04755 11.2044 9.04755 12C9.04755 12.7956 9.36384 13.5587 9.92684 14.1213C10.4898 14.6839 11.2534 15 12.0496 15C12.8458 15 13.6094 14.6839 14.1724 14.1213C14.7354 13.5587 15.0517 12.7956 15.0517 12C15.0517 11.2044 14.7354 10.4413 14.1724 9.87868C13.6094 9.31607 12.8458 9 12.0496 9Z" fill="white"/>
</svg>
