<svg aria-hidden="true" style="position: absolute; width: 0; height: 0; overflow: hidden;" version="1.1" xmlns="http://www.w3.org/2000/svg" xmlns:xlink="http://www.w3.org/1999/xlink">
<defs>
<symbol id="icon-Facebook" viewBox="0 0 32 32">
<path d="M22 8h-4c-0.736 0-1.333 0.597-1.333 1.333v4h5.333c0.152-0.003 0.295 0.067 0.386 0.189s0.115 0.28 0.068 0.424l-0.987 2.933c-0.091 0.269-0.343 0.451-0.627 0.453h-4.173v10c0 0.368-0.299 0.667-0.667 0.667h-3.333c-0.368 0-0.667-0.299-0.667-0.667v-10h-2c-0.368 0-0.667-0.299-0.667-0.667v-2.667c0-0.368 0.298-0.667 0.667-0.667h2v-4c0-2.946 2.388-5.333 5.333-5.333h4.667c0.368 0 0.667 0.298 0.667 0.667v2.667c0 0.368-0.299 0.667-0.667 0.667z"></path>
</symbol>
<symbol id="icon-Instagram" viewBox="0 0 33 32">
<path d="M10.462 2.667h11.208c4.27 0 7.739 3.467 7.739 7.733v11.2c0 2.051-0.815 4.018-2.267 5.468s-3.42 2.265-5.472 2.265h-11.208c-4.27 0-7.739-3.467-7.739-7.733v-11.2c0-2.051 0.815-4.018 2.267-5.468s3.42-2.265 5.472-2.265zM10.195 5.333c-1.274 0-2.496 0.506-3.396 1.406s-1.407 2.121-1.407 3.394v11.733c0 2.653 2.148 4.8 4.803 4.8h11.741c1.274 0 2.496-0.506 3.396-1.406s1.407-2.121 1.407-3.394v-11.733c0-2.653-2.148-4.8-4.803-4.8h-11.741zM23.071 7.333c0.442 0 0.867 0.176 1.179 0.488s0.489 0.736 0.489 1.178-0.176 0.866-0.489 1.178c-0.313 0.313-0.737 0.488-1.179 0.488s-0.867-0.176-1.179-0.488c-0.313-0.313-0.488-0.736-0.488-1.178s0.176-0.866 0.488-1.178c0.313-0.313 0.737-0.488 1.179-0.488zM16.066 9.333c1.769 0 3.466 0.702 4.717 1.953s1.954 2.946 1.954 4.714c0 1.768-0.703 3.464-1.954 4.714s-2.948 1.953-4.717 1.953-3.466-0.702-4.717-1.953c-1.251-1.25-1.954-2.946-1.954-4.714s0.703-3.464 1.954-4.714c1.251-1.25 2.948-1.953 4.717-1.953zM16.066 12c-1.062 0-2.080 0.421-2.83 1.172s-1.172 1.768-1.172 2.828 0.422 2.078 1.172 2.828c0.751 0.75 1.769 1.172 2.83 1.172s2.080-0.421 2.83-1.172c0.751-0.75 1.172-1.768 1.172-2.828s-0.422-2.078-1.172-2.828c-0.751-0.75-1.769-1.172-2.83-1.172z"></path>
</symbol>
<symbol id="icon-Tiktok" viewBox="0 0 32 32">
<path d="M22.133 7.76c-0.911-1.040-1.414-2.377-1.413-3.76h-4.12v16.533c-0.032 0.895-0.409 1.742-1.054 2.364s-1.504 0.969-2.4 0.969c-1.893 0-3.467-1.547-3.467-3.467 0-2.293 2.213-4.013 4.493-3.307v-4.213c-4.6-0.613-8.627 2.96-8.627 7.52 0 4.44 3.68 7.6 7.587 7.6 4.187 0 7.587-3.4 7.587-7.6v-8.387c1.671 1.2 3.677 1.843 5.733 1.84v-4.12c0 0-2.507 0.12-4.32-1.973z"></path>
</symbol>
</defs>
</svg>
