<svg aria-hidden="true" style="position: absolute; width: 0; height: 0; overflow: hidden;" version="1.1" xmlns="http://www.w3.org/2000/svg" xmlns:xlink="http://www.w3.org/1999/xlink">
<defs>
<symbol id="icon-logo" viewBox="0 0 35 32">
<path d="M10.764 0.025c1.987-0.286 4.093 1.886 4.699 4.884 0.606 2.981-0.488 5.642-2.476 5.945-1.971 0.303-4.093-1.869-4.716-4.867-0.623-2.981 0.505-5.642 2.493-5.962zM22.806 0.025c2.004 0.32 3.116 2.981 2.526 5.962-0.64 2.998-2.745 5.171-4.733 4.867-2.004-0.303-3.099-2.964-2.476-5.945 0.606-2.998 2.712-5.171 4.682-4.884zM1.753 7.773c1.92-0.825 4.531 0.674 5.895 3.284 1.28 2.661 0.842 5.457-1.061 6.282s-4.497-0.657-5.827-3.301-0.859-5.457 0.994-6.265zM32.069 7.773c1.853 0.808 2.324 3.621 0.994 6.265s-3.924 4.126-5.827 3.301c-1.903-0.825-2.341-3.621-1.061-6.282 1.364-2.611 3.975-4.109 5.895-3.284zM29.256 25.928c0.067 1.583-1.145 3.335-2.594 3.992-3.015 1.381-6.585-1.482-9.937-1.482s-6.956 2.981-9.92 1.482c-1.684-0.825-2.846-3.015-2.627-4.834 0.303-2.509 3.318-3.857 5.103-5.693 2.375-2.375 4.059-6.838 7.444-6.838 3.368 0 5.154 4.396 7.427 6.838 1.869 2.055 4.985 3.789 5.103 6.535z"></path>
</symbol>

</defs>
</svg>
